# xmcd
# 
# Track frame offsets:
#     150
#     50153
#     76003
#     94780
#     119937
#     147990
# 
# Disc length: 2452
# 
# Revision: 7
# Processed by: cddbd v1.5.2PL0 Copyright (c) Steve Scherf et al.
# Submitted via: fre:ac v1.0.27
# 
DISCID=53099206
DTITLE=Gerry Mulligan - At the Village Vanguard
DYEAR=1961
DGENRE=Jazz
TTITLE0=Blueport
TTITLE1=Body and Soul
TTITLE2=Black Nightgown
TTITLE3=Come Rain or Come Shine
TTITLE4=Lady Chatterley's Mother
TTITLE5=Let My People Be
EXTD=
EXTT0=(Art Farmer - arr. Al Cohn)
EXTT1=(Frank Eyton/Johnny Green/Edward Heyman/Robert Sour - arr. Bob Brookmeyer)
EXTT2=(Johnny Mandel - arr. Johnny Mandel)
EXTT3=(Harold Arlen/Johnny Mercer - arr. Gerry Mulligan)
EXTT4=(Al Cohn - arr. Al Cohn]\nAKA "Mother's Day".
EXTT5=(Gerry Mulligan - arr. Bob Brookmeyer)
PLAYORDER=
